<?xml version="1.0" encoding="UTF-8"?><svg xmlns="http://www.w3.org/2000/svg" xmlns:xlink="http://www.w3.org/1999/xlink" contentScriptType="text/ecmascript" width="375pt" zoomAndPan="magnify" contentStyleType="text/css" viewBox="0 0 375 374.999991" height="374.999991pt" preserveAspectRatio="xMidYMid meet" version="1.2"><defs><clipPath xml:id="clip1" id="clip1"><path d="M 13.742188 293.167969 L 84 293.167969 L 84 356.554688 L 13.742188 356.554688 Z M 13.742188 293.167969 "/></clipPath><clipPath xml:id="clip2" id="clip2"><path d="M 84 293.167969 L 141 293.167969 L 141 356.554688 L 84 356.554688 Z M 84 293.167969 "/></clipPath><clipPath xml:id="clip3" id="clip3"><path d="M 151 293.167969 L 197 293.167969 L 197 356.554688 L 151 356.554688 Z M 151 293.167969 "/></clipPath><clipPath xml:id="clip4" id="clip4"><path d="M 197 293.167969 L 216 293.167969 L 216 356.554688 L 197 356.554688 Z M 197 293.167969 "/></clipPath><clipPath xml:id="clip5" id="clip5"><path d="M 218 293.167969 L 264 293.167969 L 264 356.554688 L 218 356.554688 Z M 218 293.167969 "/></clipPath><clipPath xml:id="clip6" id="clip6"><path d="M 265 293.167969 L 298 293.167969 L 298 356.554688 L 265 356.554688 Z M 265 293.167969 "/></clipPath><clipPath xml:id="clip7" id="clip7"><path d="M 319 293.167969 L 359.492188 293.167969 L 359.492188 356.554688 L 319 356.554688 Z M 319 293.167969 "/></clipPath><clipPath xml:id="clip8" id="clip8"><path d="M 66 8.441406 L 361 8.441406 L 361 225 L 66 225 Z M 66 8.441406 "/></clipPath></defs><g xml:id="surface1" id="surface1"><g clip-rule="nonzero" clip-path="url(#clip1)"><path style=" stroke:none;fill-rule:nonzero;fill:rgb(83.139038%,51.368713%,10.198975%);fill-opacity:1;" d="M 62.070312 342.914062 L 34.949219 342.914062 C 34.550781 342.910156 34.179688 343.019531 33.847656 343.238281 C 33.511719 343.457031 33.265625 343.75 33.109375 344.113281 L 28.421875 355.222656 C 28.265625 355.589844 28.019531 355.886719 27.6875 356.105469 C 27.351562 356.324219 26.980469 356.4375 26.578125 356.433594 L 15.742188 356.433594 C 15.582031 356.4375 15.421875 356.417969 15.265625 356.382812 C 15.109375 356.34375 14.960938 356.289062 14.816406 356.214844 C 14.671875 356.140625 14.542969 356.050781 14.421875 355.945312 C 14.300781 355.839844 14.195312 355.71875 14.105469 355.585938 C 14.011719 355.457031 13.941406 355.3125 13.882812 355.164062 C 13.828125 355.015625 13.792969 354.859375 13.777344 354.703125 C 13.757812 354.542969 13.761719 354.382812 13.785156 354.226562 C 13.808594 354.070312 13.851562 353.914062 13.910156 353.769531 L 40.796875 294.363281 C 40.964844 294.019531 41.214844 293.746094 41.546875 293.546875 C 41.878906 293.34375 42.238281 293.246094 42.628906 293.253906 L 54.710938 293.253906 C 55.097656 293.25 55.453125 293.347656 55.785156 293.546875 C 56.113281 293.746094 56.363281 294.019531 56.53125 294.363281 L 83.503906 353.710938 C 83.566406 353.859375 83.613281 354.015625 83.636719 354.175781 C 83.664062 354.335938 83.667969 354.496094 83.652344 354.65625 C 83.640625 354.820312 83.605469 354.976562 83.550781 355.128906 C 83.496094 355.28125 83.421875 355.425781 83.332031 355.558594 C 83.238281 355.695312 83.132812 355.816406 83.011719 355.921875 C 82.890625 356.03125 82.757812 356.125 82.613281 356.199219 C 82.46875 356.273438 82.316406 356.332031 82.15625 356.371094 C 81.996094 356.40625 81.835938 356.425781 81.671875 356.421875 L 70.433594 356.421875 C 70.027344 356.425781 69.660156 356.316406 69.324219 356.09375 C 68.988281 355.875 68.742188 355.578125 68.589844 355.210938 L 63.902344 344.101562 C 63.746094 343.742188 63.5 343.453125 63.167969 343.238281 C 62.835938 343.019531 62.46875 342.914062 62.070312 342.914062 Z M 57.574219 329.148438 L 50.425781 311.996094 C 50.269531 311.628906 50.019531 311.339844 49.683594 311.121094 C 49.347656 310.902344 48.980469 310.792969 48.578125 310.792969 C 48.175781 310.792969 47.808594 310.902344 47.472656 311.121094 C 47.136719 311.339844 46.886719 311.628906 46.730469 311.996094 L 39.503906 329.148438 C 39.441406 329.296875 39.402344 329.449219 39.378906 329.609375 C 39.355469 329.765625 39.355469 329.925781 39.375 330.085938 C 39.390625 330.242188 39.429688 330.398438 39.484375 330.546875 C 39.542969 330.699219 39.617188 330.839844 39.707031 330.96875 C 39.800781 331.101562 39.90625 331.21875 40.027344 331.324219 C 40.148438 331.429688 40.28125 331.519531 40.425781 331.59375 C 40.570312 331.664062 40.722656 331.71875 40.878906 331.753906 C 41.035156 331.792969 41.195312 331.808594 41.355469 331.804688 L 55.808594 331.804688 C 55.972656 331.808594 56.128906 331.789062 56.289062 331.753906 C 56.445312 331.714844 56.59375 331.660156 56.738281 331.589844 C 56.882812 331.515625 57.011719 331.425781 57.132812 331.320312 C 57.253906 331.214844 57.359375 331.097656 57.453125 330.964844 C 57.542969 330.832031 57.617188 330.695312 57.671875 330.542969 C 57.730469 330.394531 57.765625 330.242188 57.785156 330.082031 C 57.800781 329.921875 57.800781 329.765625 57.777344 329.609375 C 57.753906 329.449219 57.714844 329.296875 57.652344 329.148438 Z M 57.574219 329.148438 "/></g><g clip-rule="nonzero" clip-path="url(#clip2)"><path style=" stroke:none;fill-rule:nonzero;fill:rgb(83.139038%,51.368713%,10.198975%);fill-opacity:1;" d="M 104.777344 305.164062 L 87.695312 305.164062 C 87.242188 305.167969 86.800781 305.089844 86.378906 304.925781 C 85.957031 304.757812 85.582031 304.519531 85.253906 304.207031 C 84.925781 303.894531 84.671875 303.535156 84.488281 303.121094 C 84.304688 302.710938 84.210938 302.28125 84.199219 301.832031 L 84.199219 296.320312 C 84.203125 295.910156 84.289062 295.511719 84.453125 295.132812 C 84.617188 294.753906 84.847656 294.421875 85.144531 294.132812 C 85.445312 293.847656 85.785156 293.625 86.175781 293.472656 C 86.5625 293.320312 86.964844 293.25 87.378906 293.253906 L 136.832031 293.253906 C 137.277344 293.253906 137.707031 293.339844 138.121094 293.507812 C 138.535156 293.675781 138.898438 293.917969 139.214844 294.230469 C 139.53125 294.542969 139.773438 294.902344 139.945312 295.3125 C 140.117188 295.71875 140.203125 296.144531 140.203125 296.585938 L 140.203125 302.140625 C 140.195312 302.542969 140.113281 302.929688 139.953125 303.296875 C 139.792969 303.664062 139.566406 303.988281 139.277344 304.269531 C 138.984375 304.550781 138.652344 304.765625 138.273438 304.914062 C 137.898438 305.0625 137.507812 305.136719 137.101562 305.128906 L 119.625 305.128906 L 119.625 354.011719 C 119.621094 354.34375 119.554688 354.664062 119.421875 354.96875 C 119.292969 355.273438 119.105469 355.542969 118.867188 355.773438 C 118.628906 356.003906 118.355469 356.183594 118.042969 356.308594 C 117.730469 356.433594 117.410156 356.492188 117.074219 356.488281 L 107.363281 356.488281 C 107.019531 356.492188 106.691406 356.429688 106.375 356.304688 C 106.058594 356.175781 105.777344 355.992188 105.535156 355.757812 C 105.292969 355.519531 105.105469 355.242188 104.976562 354.929688 C 104.84375 354.621094 104.777344 354.292969 104.777344 353.957031 Z M 104.777344 305.164062 "/></g><g clip-rule="nonzero" clip-path="url(#clip3)"><path style=" stroke:none;fill-rule:nonzero;fill:rgb(83.139038%,51.368713%,10.198975%);fill-opacity:1;" d="M 156.230469 355.269531 L 162.265625 327.105469 C 162.34375 326.753906 162.523438 326.464844 162.808594 326.238281 C 163.09375 326.011719 163.417969 325.902344 163.78125 325.90625 L 184.933594 325.90625 C 185.292969 325.90625 185.613281 325.800781 185.898438 325.582031 C 186.179688 325.363281 186.363281 325.082031 186.449219 324.738281 L 186.777344 323.304688 C 186.824219 323.082031 186.824219 322.855469 186.769531 322.632812 C 186.714844 322.410156 186.617188 322.210938 186.46875 322.03125 C 186.324219 321.851562 186.144531 321.714844 185.933594 321.617188 C 185.722656 321.519531 185.503906 321.46875 185.269531 321.472656 L 165.46875 321.472656 C 165.238281 321.472656 165.019531 321.425781 164.808594 321.328125 C 164.601562 321.234375 164.421875 321.097656 164.277344 320.921875 C 164.128906 320.746094 164.027344 320.546875 163.96875 320.328125 C 163.914062 320.105469 163.90625 319.886719 163.949219 319.660156 L 168.355469 298.976562 C 168.433594 298.625 168.613281 298.335938 168.898438 298.109375 C 169.183594 297.882812 169.507812 297.773438 169.875 297.777344 L 194.238281 297.777344 C 194.597656 297.773438 194.917969 297.660156 195.195312 297.441406 C 195.476562 297.21875 195.65625 296.933594 195.734375 296.585938 L 196.046875 295.074219 C 196.097656 294.851562 196.09375 294.628906 196.039062 294.40625 C 195.980469 294.183594 195.878906 293.980469 195.734375 293.804688 C 195.585938 293.628906 195.40625 293.492188 195.195312 293.394531 C 194.984375 293.296875 194.761719 293.25 194.53125 293.253906 L 165.996094 293.253906 C 165.628906 293.25 165.304688 293.359375 165.019531 293.585938 C 164.734375 293.8125 164.554688 294.101562 164.480469 294.453125 L 151.554688 354.644531 C 151.507812 354.871094 151.511719 355.097656 151.570312 355.324219 C 151.628906 355.546875 151.734375 355.75 151.886719 355.925781 C 152.035156 356.101562 152.21875 356.238281 152.433594 356.335938 C 152.644531 356.429688 152.871094 356.472656 153.105469 356.46875 L 154.757812 356.46875 C 155.113281 356.460938 155.429688 356.347656 155.707031 356.121094 C 155.980469 355.898438 156.15625 355.613281 156.230469 355.269531 Z M 156.230469 355.269531 "/></g><g clip-rule="nonzero" clip-path="url(#clip4)"><path style=" stroke:none;fill-rule:nonzero;fill:rgb(83.139038%,51.368713%,10.198975%);fill-opacity:1;" d="M 202.21875 355.15625 L 215.085938 295.21875 C 215.136719 294.976562 215.128906 294.734375 215.070312 294.496094 C 215.007812 294.253906 214.894531 294.039062 214.734375 293.847656 C 214.574219 293.65625 214.382812 293.507812 214.152344 293.40625 C 213.925781 293.300781 213.6875 293.25 213.433594 293.253906 L 212.0625 293.253906 C 211.667969 293.25 211.316406 293.371094 211.007812 293.617188 C 210.699219 293.859375 210.503906 294.171875 210.421875 294.554688 L 197.554688 354.546875 C 197.515625 354.785156 197.527344 355.019531 197.59375 355.25 C 197.65625 355.484375 197.765625 355.691406 197.925781 355.875 C 198.082031 356.058594 198.269531 356.203125 198.488281 356.308594 C 198.707031 356.410156 198.941406 356.464844 199.183594 356.46875 L 200.554688 356.46875 C 200.957031 356.476562 201.3125 356.355469 201.625 356.109375 C 201.941406 355.863281 202.136719 355.542969 202.21875 355.15625 Z M 202.21875 355.15625 "/></g><g clip-rule="nonzero" clip-path="url(#clip5)"><path style=" stroke:none;fill-rule:nonzero;fill:rgb(83.139038%,51.368713%,10.198975%);fill-opacity:1;" d="M 251.050781 355.132812 L 251.308594 354.023438 C 251.363281 353.769531 251.355469 353.519531 251.292969 353.269531 C 251.230469 353.015625 251.117188 352.792969 250.953125 352.59375 C 250.785156 352.394531 250.585938 352.238281 250.347656 352.128906 C 250.113281 352.019531 249.863281 351.964844 249.601562 351.96875 L 226.484375 351.96875 C 226.222656 351.972656 225.972656 351.917969 225.734375 351.8125 C 225.496094 351.703125 225.292969 351.546875 225.128906 351.347656 C 224.960938 351.148438 224.847656 350.921875 224.785156 350.671875 C 224.722656 350.417969 224.71875 350.167969 224.773438 349.914062 L 229.640625 327.273438 C 229.730469 326.875 229.933594 326.550781 230.253906 326.296875 C 230.574219 326.042969 230.9375 325.914062 231.351562 325.917969 L 252.480469 325.917969 C 252.890625 325.921875 253.257812 325.792969 253.578125 325.539062 C 253.898438 325.285156 254.101562 324.957031 254.1875 324.5625 L 254.421875 323.449219 C 254.472656 323.199219 254.46875 322.949219 254.402344 322.699219 C 254.339844 322.449219 254.226562 322.226562 254.058594 322.027344 C 253.894531 321.828125 253.695312 321.675781 253.457031 321.566406 C 253.222656 321.457031 252.976562 321.402344 252.714844 321.40625 L 233.101562 321.40625 C 232.84375 321.410156 232.597656 321.355469 232.359375 321.25 C 232.125 321.140625 231.925781 320.988281 231.757812 320.792969 C 231.59375 320.59375 231.476562 320.371094 231.414062 320.125 C 231.351562 319.875 231.34375 319.625 231.394531 319.371094 L 235.710938 299.152344 C 235.792969 298.757812 235.992188 298.429688 236.308594 298.171875 C 236.625 297.914062 236.984375 297.78125 237.394531 297.777344 L 261.605469 297.777344 C 262.015625 297.777344 262.382812 297.652344 262.703125 297.398438 C 263.023438 297.144531 263.226562 296.816406 263.3125 296.421875 L 263.550781 295.308594 C 263.601562 295.058594 263.601562 294.808594 263.539062 294.558594 C 263.480469 294.308594 263.367188 294.082031 263.203125 293.882812 C 263.039062 293.683594 262.839844 293.527344 262.605469 293.417969 C 262.371094 293.308594 262.125 293.253906 261.863281 293.253906 L 233.5625 293.253906 C 233.152344 293.25 232.785156 293.375 232.464844 293.628906 C 232.144531 293.886719 231.941406 294.210938 231.855469 294.609375 L 219.019531 354.421875 C 218.96875 354.675781 218.972656 354.925781 219.035156 355.175781 C 219.097656 355.425781 219.210938 355.652344 219.378906 355.851562 C 219.542969 356.050781 219.746094 356.203125 219.984375 356.3125 C 220.21875 356.417969 220.46875 356.472656 220.730469 356.46875 L 249.34375 356.46875 C 249.75 356.46875 250.113281 356.347656 250.433594 356.097656 C 250.753906 355.847656 250.960938 355.527344 251.050781 355.132812 Z M 251.050781 355.132812 "/></g><g clip-rule="nonzero" clip-path="url(#clip6)"><path style=" stroke:none;fill-rule:nonzero;fill:rgb(83.139038%,51.368713%,10.198975%);fill-opacity:1;" d="M 297.152344 355.125 L 297.398438 353.945312 C 297.449219 353.699219 297.441406 353.453125 297.378906 353.207031 C 297.316406 352.960938 297.203125 352.742188 297.039062 352.550781 C 296.875 352.355469 296.675781 352.207031 296.445312 352.101562 C 296.214844 351.996094 295.96875 351.941406 295.714844 351.945312 L 273.125 351.945312 C 272.867188 351.949219 272.625 351.898438 272.390625 351.792969 C 272.15625 351.683594 271.957031 351.535156 271.796875 351.339844 C 271.632812 351.144531 271.519531 350.921875 271.457031 350.675781 C 271.394531 350.429688 271.386719 350.183594 271.4375 349.933594 L 283.117188 295.265625 C 283.167969 295.015625 283.164062 294.769531 283.105469 294.523438 C 283.042969 294.277344 282.929688 294.058594 282.769531 293.863281 C 282.605469 293.664062 282.40625 293.515625 282.175781 293.40625 C 281.941406 293.300781 281.699219 293.25 281.441406 293.253906 L 280.105469 293.253906 C 279.699219 293.25 279.335938 293.375 279.019531 293.625 C 278.703125 293.875 278.503906 294.195312 278.417969 294.585938 L 265.605469 354.457031 C 265.554688 354.707031 265.558594 354.953125 265.621094 355.199219 C 265.683594 355.445312 265.796875 355.664062 265.960938 355.859375 C 266.125 356.054688 266.324219 356.207031 266.558594 356.3125 C 266.789062 356.417969 267.035156 356.472656 267.292969 356.46875 L 295.46875 356.46875 C 295.875 356.46875 296.234375 356.34375 296.550781 356.089844 C 296.867188 355.839844 297.066406 355.515625 297.152344 355.125 Z M 297.152344 355.125 "/></g><g clip-rule="nonzero" clip-path="url(#clip7)"><path style=" stroke:none;fill-rule:nonzero;fill:rgb(83.139038%,51.368713%,10.198975%);fill-opacity:1;" d="M 329.050781 355.300781 L 341.164062 298.941406 C 341.253906 298.609375 341.433594 298.339844 341.710938 298.132812 C 341.988281 297.925781 342.300781 297.824219 342.648438 297.832031 L 357.652344 297.832031 C 358.027344 297.839844 358.355469 297.726562 358.644531 297.488281 C 358.933594 297.253906 359.109375 296.953125 359.167969 296.585938 L 359.507812 295 C 359.546875 294.78125 359.539062 294.566406 359.480469 294.355469 C 359.425781 294.140625 359.324219 293.949219 359.179688 293.78125 C 359.035156 293.613281 358.863281 293.480469 358.660156 293.390625 C 358.457031 293.296875 358.246094 293.253906 358.023438 293.253906 L 321.203125 293.253906 C 320.847656 293.25 320.527344 293.359375 320.25 293.582031 C 319.972656 293.804688 319.796875 294.085938 319.71875 294.433594 L 319.441406 296.019531 C 319.398438 296.238281 319.40625 296.453125 319.460938 296.667969 C 319.515625 296.878906 319.613281 297.070312 319.757812 297.242188 C 319.898438 297.410156 320.070312 297.542969 320.273438 297.636719 C 320.476562 297.730469 320.6875 297.777344 320.910156 297.777344 L 334.714844 297.777344 C 334.9375 297.773438 335.152344 297.820312 335.359375 297.910156 C 335.5625 298.003906 335.738281 298.136719 335.882812 298.308594 C 336.023438 298.480469 336.125 298.675781 336.179688 298.890625 C 336.234375 299.105469 336.242188 299.324219 336.195312 299.542969 L 324.292969 354.703125 C 324.25 354.917969 324.257812 355.136719 324.3125 355.351562 C 324.367188 355.566406 324.464844 355.757812 324.605469 355.929688 C 324.75 356.101562 324.921875 356.234375 325.125 356.328125 C 325.328125 356.421875 325.542969 356.46875 325.765625 356.46875 L 327.578125 356.46875 C 327.929688 356.46875 328.246094 356.359375 328.519531 356.140625 C 328.796875 355.921875 328.972656 355.640625 329.050781 355.300781 Z M 329.050781 355.300781 "/></g><g clip-rule="nonzero" clip-path="url(#clip8)"><path style=" stroke:none;fill-rule:nonzero;fill:rgb(83.139038%,51.368713%,10.198975%);fill-opacity:1;" d="M 66.628906 151 L 66.699219 224.03125 C 66.714844 223.464844 66.917969 222.976562 67.308594 222.570312 L 96.703125 194.148438 C 97.515625 193.34375 98.445312 192.726562 99.5 192.289062 C 100.554688 191.855469 101.652344 191.632812 102.792969 191.628906 L 198.988281 191.628906 C 200.101562 191.628906 201.175781 191.421875 202.207031 191 C 203.238281 190.578125 204.148438 189.976562 204.941406 189.195312 L 248.78125 145.679688 C 249.261719 145.203125 249.566406 144.636719 249.699219 143.972656 C 249.832031 143.3125 249.769531 142.667969 249.511719 142.042969 C 249.25 141.417969 248.839844 140.921875 248.277344 140.546875 C 247.714844 140.175781 247.09375 139.992188 246.417969 139.996094 L 157.832031 139.996094 C 157.285156 140 156.78125 139.851562 156.328125 139.546875 C 155.871094 139.246094 155.539062 138.84375 155.328125 138.335938 C 155.117188 137.832031 155.066406 137.3125 155.175781 136.777344 C 155.28125 136.238281 155.53125 135.777344 155.917969 135.394531 L 209.949219 81.730469 C 210.199219 81.480469 210.472656 81.261719 210.765625 81.066406 C 211.058594 80.871094 211.371094 80.707031 211.695312 80.574219 C 212.023438 80.441406 212.359375 80.339844 212.703125 80.269531 C 213.050781 80.203125 213.402344 80.167969 213.753906 80.167969 C 214.105469 80.167969 214.457031 80.203125 214.800781 80.269531 C 215.148438 80.339844 215.484375 80.441406 215.808594 80.574219 C 216.136719 80.707031 216.445312 80.871094 216.742188 81.066406 C 217.035156 81.261719 217.308594 81.480469 217.558594 81.730469 L 354.886719 218.175781 C 355.382812 218.667969 355.972656 218.984375 356.65625 219.121094 C 357.34375 219.257812 358.007812 219.195312 358.652344 218.929688 C 359.300781 218.664062 359.816406 218.238281 360.207031 217.660156 C 360.597656 217.078125 360.792969 216.4375 360.792969 215.742188 L 360.792969 154.332031 C 360.785156 153.257812 360.574219 152.226562 360.148438 151.242188 C 359.726562 150.253906 359.128906 149.382812 358.359375 148.636719 L 218.191406 10.464844 C 216.242188 8.027344 210.570312 7.625 207.730469 10.546875 "/></g><path style=" stroke:none;fill-rule:nonzero;fill:rgb(83.139038%,51.368713%,10.198975%);fill-opacity:1;" d="M 165.355469 229.335938 C 165.800781 228.890625 166.085938 228.355469 166.207031 227.738281 C 166.324219 227.117188 166.261719 226.515625 166.015625 225.9375 C 165.769531 225.355469 165.382812 224.890625 164.855469 224.546875 C 164.328125 224.203125 163.746094 224.035156 163.117188 224.042969 L 73.324219 224.164062 L 74.871094 224.164062 C 70.195312 224.164062 68.722656 221.351562 72.070312 217.980469 L 66.628906 220.78125 L 18.261719 272.144531 C 11.515625 271.863281 17.882812 275.6875 19.746094 275.6875 L 114.894531 275.6875 C 116.109375 275.6875 117.273438 275.457031 118.394531 274.996094 C 119.511719 274.535156 120.503906 273.875 121.363281 273.019531 Z M 165.355469 229.335938 "/><path style=" stroke:none;fill-rule:nonzero;fill:rgb(83.139038%,51.368713%,10.198975%);fill-opacity:1;" d="M 24.214844 191.714844 L 67.054688 150.671875 L 81.910156 207.707031 Z M 24.214844 191.714844 "/><path style=" stroke:none;fill-rule:nonzero;fill:rgb(83.139038%,51.368713%,10.198975%);fill-opacity:1;" d="M 14.691406 216.75 L 65.992188 246.21875 L 19.746094 275.699219 C 15.230469 275.699219 14.691406 272.910156 14.691406 269.40625 Z M 14.691406 216.75 "/><path style=" stroke:none;fill-rule:nonzero;fill:rgb(83.139038%,51.368713%,10.198975%);fill-opacity:1;" d="M 60.746094 157.328125 L 70.488281 217.140625 L 16.128906 207.109375 C 17.566406 205.636719 20.050781 202.839844 16.3125 199.089844 "/><path style=" stroke:none;fill-rule:nonzero;fill:rgb(83.139038%,51.368713%,10.198975%);fill-opacity:1;" d="M 14.691406 206.527344 L 65.992188 234.316406 L 14.691406 263.769531 Z M 14.691406 206.527344 "/><path style=" stroke:none;fill-rule:nonzero;fill:rgb(83.139038%,51.368713%,10.198975%);fill-opacity:1;" d="M 22.351562 193.671875 L 57.226562 204.628906 C 57.410156 204.6875 57.566406 204.785156 57.703125 204.917969 C 57.839844 205.050781 57.9375 205.207031 58 205.390625 C 58.0625 205.570312 58.082031 205.753906 58.058594 205.945312 C 58.03125 206.132812 57.96875 206.308594 57.859375 206.464844 L 31.484375 242.578125 C 31.417969 242.660156 31.347656 242.730469 31.261719 242.789062 C 31.179688 242.851562 31.089844 242.902344 30.996094 242.9375 C 30.898438 242.976562 30.800781 243.003906 30.699219 243.015625 C 30.597656 243.027344 30.492188 243.027344 30.390625 243.015625 C 30.289062 243.003906 30.191406 242.976562 30.09375 242.941406 C 30 242.902344 29.910156 242.851562 29.824219 242.792969 C 29.742188 242.730469 29.667969 242.664062 29.601562 242.582031 C 29.539062 242.503906 29.484375 242.417969 29.4375 242.324219 L 14.765625 206.722656 C 14.714844 206.589844 14.683594 206.449219 14.679688 206.308594 C 14.449219 200.867188 16.386719 197.882812 20.453125 195.035156 C 20.746094 194.828125 22.023438 193.574219 22.351562 193.671875 Z M 22.351562 193.671875 "/><path style=" stroke:none;fill-rule:nonzero;fill:rgb(83.139038%,51.368713%,10.198975%);fill-opacity:1;" d="M 24.105469 213.621094 L 66.808594 213.621094 L 66.808594 256.101562 L 24.105469 256.101562 Z M 24.105469 213.621094 "/></g></svg>